<mxfile host="app.diagrams.net" modified="2023-11-27T22:28:33.696Z" agent="Mozilla/5.0 (Windows NT 10.0; Win64; x64) AppleWebKit/537.36 (KHTML, like Gecko) Chrome/119.0.0.0 Safari/537.36" etag="rmzd3I81d_GZM-mkYbWG" version="22.1.4" type="device">
  <diagram name="Page-1" id="74e2e168-ea6b-b213-b513-2b3c1d86103e">
    <mxGraphModel dx="1400" dy="723" grid="1" gridSize="10" guides="1" tooltips="1" connect="1" arrows="1" fold="1" page="1" pageScale="1" pageWidth="1100" pageHeight="850" background="none" math="0" shadow="0">
      <root>
        <mxCell id="0" />
        <mxCell id="1" parent="0" />
        <mxCell id="77e6c97f196da883-1" value="" style="swimlane;html=1;childLayout=stackLayout;startSize=20;rounded=0;shadow=0;labelBackgroundColor=none;strokeWidth=1;fontFamily=Verdana;fontSize=19;align=center;" parent="1" vertex="1">
          <mxGeometry x="70" y="40" width="960" height="3180" as="geometry" />
        </mxCell>
        <mxCell id="77e6c97f196da883-2" value="User" style="swimlane;html=1;startSize=20;fontSize=20;" parent="77e6c97f196da883-1" vertex="1">
          <mxGeometry y="20" width="160" height="3160" as="geometry" />
        </mxCell>
        <mxCell id="77e6c97f196da883-8" value="&lt;font style=&quot;font-size: 16px;&quot;&gt;Caso 4.1&lt;/font&gt;" style="rounded=1;whiteSpace=wrap;html=1;shadow=0;labelBackgroundColor=none;strokeWidth=1;fontFamily=Verdana;fontSize=8;align=center;" parent="77e6c97f196da883-2" vertex="1">
          <mxGeometry x="20" y="65" width="100" height="60" as="geometry" />
        </mxCell>
        <mxCell id="XBD43902KFohH3j-Ddfg-4" value="&lt;font style=&quot;font-size: 15px;&quot;&gt;Caso 4.2&lt;/font&gt;" style="rounded=1;whiteSpace=wrap;html=1;shadow=0;labelBackgroundColor=none;strokeWidth=1;fontFamily=Verdana;fontSize=8;align=center;" parent="77e6c97f196da883-2" vertex="1">
          <mxGeometry x="20" y="160" width="100" height="60" as="geometry" />
        </mxCell>
        <mxCell id="XBD43902KFohH3j-Ddfg-8" style="edgeStyle=orthogonalEdgeStyle;rounded=1;html=1;labelBackgroundColor=none;startArrow=none;startFill=0;startSize=5;endArrow=classicThin;endFill=1;endSize=5;jettySize=auto;orthogonalLoop=1;strokeWidth=1;fontFamily=Verdana;fontSize=8" parent="77e6c97f196da883-2" edge="1">
          <mxGeometry relative="1" as="geometry">
            <mxPoint x="120" y="189.5" as="sourcePoint" />
            <mxPoint x="190" y="189.5" as="targetPoint" />
          </mxGeometry>
        </mxCell>
        <mxCell id="XBD43902KFohH3j-Ddfg-13" value="&lt;font style=&quot;font-size: 16px;&quot;&gt;Caso 4.3&lt;/font&gt;" style="rounded=1;whiteSpace=wrap;html=1;shadow=0;labelBackgroundColor=none;strokeWidth=1;fontFamily=Verdana;fontSize=8;align=center;" parent="77e6c97f196da883-2" vertex="1">
          <mxGeometry x="20" y="390" width="100" height="60" as="geometry" />
        </mxCell>
        <mxCell id="XBD43902KFohH3j-Ddfg-16" value="&lt;font style=&quot;font-size: 16px;&quot;&gt;Caso 4.4&lt;/font&gt;" style="rounded=1;whiteSpace=wrap;html=1;shadow=0;labelBackgroundColor=none;strokeWidth=1;fontFamily=Verdana;fontSize=8;align=center;" parent="77e6c97f196da883-2" vertex="1">
          <mxGeometry x="20" y="480" width="100" height="60" as="geometry" />
        </mxCell>
        <mxCell id="XBD43902KFohH3j-Ddfg-29" value="&lt;font style=&quot;font-size: 16px;&quot;&gt;Caso 4.5&lt;/font&gt;" style="rounded=1;whiteSpace=wrap;html=1;shadow=0;labelBackgroundColor=none;strokeWidth=1;fontFamily=Verdana;fontSize=8;align=center;" parent="77e6c97f196da883-2" vertex="1">
          <mxGeometry x="20" y="660" width="100" height="60" as="geometry" />
        </mxCell>
        <mxCell id="XBD43902KFohH3j-Ddfg-32" value="&lt;font style=&quot;font-size: 16px;&quot;&gt;Caso 4.7&lt;/font&gt;" style="rounded=1;whiteSpace=wrap;html=1;shadow=0;labelBackgroundColor=none;strokeWidth=1;fontFamily=Verdana;fontSize=8;align=center;" parent="77e6c97f196da883-2" vertex="1">
          <mxGeometry x="20" y="760" width="100" height="60" as="geometry" />
        </mxCell>
        <mxCell id="XBD43902KFohH3j-Ddfg-45" value="&lt;font style=&quot;font-size: 16px;&quot;&gt;Caso 4.8&lt;/font&gt;" style="rounded=1;whiteSpace=wrap;html=1;shadow=0;labelBackgroundColor=none;strokeWidth=1;fontFamily=Verdana;fontSize=8;align=center;" parent="77e6c97f196da883-2" vertex="1">
          <mxGeometry x="20" y="1070" width="100" height="60" as="geometry" />
        </mxCell>
        <mxCell id="XBD43902KFohH3j-Ddfg-48" value="&lt;font style=&quot;font-size: 16px;&quot;&gt;Caso 4.9&lt;/font&gt;" style="rounded=1;whiteSpace=wrap;html=1;shadow=0;labelBackgroundColor=none;strokeWidth=1;fontFamily=Verdana;fontSize=8;align=center;" parent="77e6c97f196da883-2" vertex="1">
          <mxGeometry x="20" y="1160" width="100" height="60" as="geometry" />
        </mxCell>
        <mxCell id="XBD43902KFohH3j-Ddfg-51" value="&lt;font style=&quot;font-size: 16px;&quot;&gt;Caso 4.10&lt;/font&gt;" style="rounded=1;whiteSpace=wrap;html=1;shadow=0;labelBackgroundColor=none;strokeWidth=1;fontFamily=Verdana;fontSize=8;align=center;" parent="77e6c97f196da883-2" vertex="1">
          <mxGeometry x="20" y="1250" width="100" height="60" as="geometry" />
        </mxCell>
        <mxCell id="XBD43902KFohH3j-Ddfg-58" value="&lt;font style=&quot;font-size: 16px;&quot;&gt;Caso 4.11&lt;/font&gt;" style="rounded=1;whiteSpace=wrap;html=1;shadow=0;labelBackgroundColor=none;strokeWidth=1;fontFamily=Verdana;fontSize=8;align=center;" parent="77e6c97f196da883-2" vertex="1">
          <mxGeometry x="20" y="1500" width="100" height="60" as="geometry" />
        </mxCell>
        <mxCell id="XBD43902KFohH3j-Ddfg-61" value="&lt;font style=&quot;font-size: 16px;&quot;&gt;Caso 5.1&lt;/font&gt;" style="rounded=1;whiteSpace=wrap;html=1;shadow=0;labelBackgroundColor=none;strokeWidth=1;fontFamily=Verdana;fontSize=8;align=center;" parent="77e6c97f196da883-2" vertex="1">
          <mxGeometry x="20" y="1590" width="100" height="60" as="geometry" />
        </mxCell>
        <mxCell id="XBD43902KFohH3j-Ddfg-64" value="&lt;font style=&quot;font-size: 16px;&quot;&gt;Caso 5.2&lt;/font&gt;" style="rounded=1;whiteSpace=wrap;html=1;shadow=0;labelBackgroundColor=none;strokeWidth=1;fontFamily=Verdana;fontSize=8;align=center;" parent="77e6c97f196da883-2" vertex="1">
          <mxGeometry x="20" y="1700" width="100" height="60" as="geometry" />
        </mxCell>
        <mxCell id="XBD43902KFohH3j-Ddfg-72" value="&lt;font style=&quot;font-size: 16px;&quot;&gt;Caso 5.3&lt;/font&gt;" style="rounded=1;whiteSpace=wrap;html=1;shadow=0;labelBackgroundColor=none;strokeWidth=1;fontFamily=Verdana;fontSize=8;align=center;" parent="77e6c97f196da883-2" vertex="1">
          <mxGeometry x="20" y="1870" width="100" height="60" as="geometry" />
        </mxCell>
        <mxCell id="XBD43902KFohH3j-Ddfg-75" value="&lt;font style=&quot;font-size: 16px;&quot;&gt;Caso 5.4&lt;/font&gt;" style="rounded=1;whiteSpace=wrap;html=1;shadow=0;labelBackgroundColor=none;strokeWidth=1;fontFamily=Verdana;fontSize=8;align=center;" parent="77e6c97f196da883-2" vertex="1">
          <mxGeometry x="20" y="1950" width="100" height="60" as="geometry" />
        </mxCell>
        <mxCell id="XBD43902KFohH3j-Ddfg-78" value="&lt;font style=&quot;font-size: 16px;&quot;&gt;Caso 5.5&lt;/font&gt;" style="rounded=1;whiteSpace=wrap;html=1;shadow=0;labelBackgroundColor=none;strokeWidth=1;fontFamily=Verdana;fontSize=8;align=center;" parent="77e6c97f196da883-2" vertex="1">
          <mxGeometry x="20" y="2035" width="100" height="60" as="geometry" />
        </mxCell>
        <mxCell id="XBD43902KFohH3j-Ddfg-81" value="&lt;font style=&quot;font-size: 16px;&quot;&gt;Caso 5.6&lt;/font&gt;" style="rounded=1;whiteSpace=wrap;html=1;shadow=0;labelBackgroundColor=none;strokeWidth=1;fontFamily=Verdana;fontSize=8;align=center;" parent="77e6c97f196da883-2" vertex="1">
          <mxGeometry x="20" y="2110" width="100" height="60" as="geometry" />
        </mxCell>
        <mxCell id="XBD43902KFohH3j-Ddfg-86" value="&lt;font style=&quot;font-size: 16px;&quot;&gt;Caso Admin&lt;/font&gt;" style="rounded=1;whiteSpace=wrap;html=1;shadow=0;labelBackgroundColor=none;strokeWidth=1;fontFamily=Verdana;fontSize=8;align=center;" parent="77e6c97f196da883-2" vertex="1">
          <mxGeometry x="20" y="2200" width="100" height="60" as="geometry" />
        </mxCell>
        <mxCell id="XBD43902KFohH3j-Ddfg-93" value="&lt;font style=&quot;font-size: 16px;&quot;&gt;Caso 7.1&lt;/font&gt;" style="rounded=1;whiteSpace=wrap;html=1;shadow=0;labelBackgroundColor=none;strokeWidth=1;fontFamily=Verdana;fontSize=8;align=center;" parent="77e6c97f196da883-2" vertex="1">
          <mxGeometry x="20" y="2440" width="100" height="60" as="geometry" />
        </mxCell>
        <mxCell id="XBD43902KFohH3j-Ddfg-132" value="&lt;font style=&quot;font-size: 16px;&quot;&gt;Caso 7.2&lt;/font&gt;" style="rounded=1;whiteSpace=wrap;html=1;shadow=0;labelBackgroundColor=none;strokeWidth=1;fontFamily=Verdana;fontSize=8;align=center;" parent="77e6c97f196da883-2" vertex="1">
          <mxGeometry x="20" y="2885" width="100" height="60" as="geometry" />
        </mxCell>
        <mxCell id="XBD43902KFohH3j-Ddfg-150" value="&lt;font style=&quot;font-size: 16px;&quot;&gt;Caso 8.1&lt;/font&gt;" style="rounded=1;whiteSpace=wrap;html=1;shadow=0;labelBackgroundColor=none;strokeWidth=1;fontFamily=Verdana;fontSize=8;align=center;" parent="77e6c97f196da883-2" vertex="1">
          <mxGeometry x="20" y="2540" width="100" height="60" as="geometry" />
        </mxCell>
        <mxCell id="XBD43902KFohH3j-Ddfg-152" value="&lt;font style=&quot;font-size: 16px;&quot;&gt;Caso 8.2&lt;/font&gt;" style="rounded=1;whiteSpace=wrap;html=1;shadow=0;labelBackgroundColor=none;strokeWidth=1;fontFamily=Verdana;fontSize=8;align=center;" parent="77e6c97f196da883-2" vertex="1">
          <mxGeometry x="20" y="2960" width="100" height="60" as="geometry" />
        </mxCell>
        <mxCell id="77e6c97f196da883-26" style="edgeStyle=orthogonalEdgeStyle;rounded=1;html=1;labelBackgroundColor=none;startArrow=none;startFill=0;startSize=5;endArrow=classicThin;endFill=1;endSize=5;jettySize=auto;orthogonalLoop=1;strokeWidth=1;fontFamily=Verdana;fontSize=8" parent="77e6c97f196da883-1" source="77e6c97f196da883-8" target="77e6c97f196da883-11" edge="1">
          <mxGeometry relative="1" as="geometry" />
        </mxCell>
        <mxCell id="77e6c97f196da883-3" value="Webapp" style="swimlane;html=1;startSize=20;fontSize=20;" parent="77e6c97f196da883-1" vertex="1">
          <mxGeometry x="160" y="20" width="160" height="3160" as="geometry" />
        </mxCell>
        <mxCell id="77e6c97f196da883-11" value="&lt;font style=&quot;font-size: 16px;&quot;&gt;Modulo 1.1&lt;/font&gt;" style="rounded=1;whiteSpace=wrap;html=1;shadow=0;labelBackgroundColor=none;strokeWidth=1;fontFamily=Verdana;fontSize=8;align=center;" parent="77e6c97f196da883-3" vertex="1">
          <mxGeometry x="30" y="65" width="100" height="60" as="geometry" />
        </mxCell>
        <mxCell id="XBD43902KFohH3j-Ddfg-10" value="" style="edgeStyle=orthogonalEdgeStyle;rounded=0;orthogonalLoop=1;jettySize=auto;html=1;" parent="77e6c97f196da883-3" source="XBD43902KFohH3j-Ddfg-7" target="XBD43902KFohH3j-Ddfg-9" edge="1">
          <mxGeometry relative="1" as="geometry" />
        </mxCell>
        <mxCell id="XBD43902KFohH3j-Ddfg-7" value="&lt;font style=&quot;font-size: 16px;&quot;&gt;Modulo 1.1&lt;/font&gt;" style="rounded=1;whiteSpace=wrap;html=1;shadow=0;labelBackgroundColor=none;strokeWidth=1;fontFamily=Verdana;fontSize=8;align=center;" parent="77e6c97f196da883-3" vertex="1">
          <mxGeometry x="30" y="160" width="100" height="60" as="geometry" />
        </mxCell>
        <mxCell id="XBD43902KFohH3j-Ddfg-9" value="&lt;font style=&quot;font-size: 16px;&quot;&gt;Modulo 1.5&lt;/font&gt;" style="rounded=1;whiteSpace=wrap;html=1;shadow=0;labelBackgroundColor=none;strokeWidth=1;fontFamily=Verdana;fontSize=8;align=center;" parent="77e6c97f196da883-3" vertex="1">
          <mxGeometry x="30" y="300" width="100" height="60" as="geometry" />
        </mxCell>
        <mxCell id="XBD43902KFohH3j-Ddfg-14" value="&lt;font style=&quot;font-size: 16px;&quot;&gt;Modulo 1.1&lt;/font&gt;" style="rounded=1;whiteSpace=wrap;html=1;shadow=0;labelBackgroundColor=none;strokeWidth=1;fontFamily=Verdana;fontSize=8;align=center;" parent="77e6c97f196da883-3" vertex="1">
          <mxGeometry x="30" y="390" width="100" height="60" as="geometry" />
        </mxCell>
        <mxCell id="XBD43902KFohH3j-Ddfg-20" value="" style="edgeStyle=orthogonalEdgeStyle;rounded=0;orthogonalLoop=1;jettySize=auto;html=1;" parent="77e6c97f196da883-3" source="XBD43902KFohH3j-Ddfg-17" target="XBD43902KFohH3j-Ddfg-19" edge="1">
          <mxGeometry relative="1" as="geometry" />
        </mxCell>
        <mxCell id="XBD43902KFohH3j-Ddfg-17" value="&lt;font style=&quot;font-size: 16px;&quot;&gt;Modulo 1.1&lt;/font&gt;" style="rounded=1;whiteSpace=wrap;html=1;shadow=0;labelBackgroundColor=none;strokeWidth=1;fontFamily=Verdana;fontSize=8;align=center;" parent="77e6c97f196da883-3" vertex="1">
          <mxGeometry x="30" y="480" width="100" height="60" as="geometry" />
        </mxCell>
        <mxCell id="XBD43902KFohH3j-Ddfg-19" value="&lt;font style=&quot;font-size: 16px;&quot;&gt;Modulo 5.2&lt;/font&gt;" style="rounded=1;whiteSpace=wrap;html=1;shadow=0;labelBackgroundColor=none;strokeWidth=1;fontFamily=Verdana;fontSize=8;align=center;" parent="77e6c97f196da883-3" vertex="1">
          <mxGeometry x="30" y="560" width="100" height="60" as="geometry" />
        </mxCell>
        <mxCell id="XBD43902KFohH3j-Ddfg-30" value="&lt;font style=&quot;font-size: 16px;&quot;&gt;Modulo 1.1&lt;/font&gt;" style="rounded=1;whiteSpace=wrap;html=1;shadow=0;labelBackgroundColor=none;strokeWidth=1;fontFamily=Verdana;fontSize=8;align=center;" parent="77e6c97f196da883-3" vertex="1">
          <mxGeometry x="30" y="660" width="100" height="60" as="geometry" />
        </mxCell>
        <mxCell id="XBD43902KFohH3j-Ddfg-36" value="" style="edgeStyle=orthogonalEdgeStyle;rounded=0;orthogonalLoop=1;jettySize=auto;html=1;" parent="77e6c97f196da883-3" source="XBD43902KFohH3j-Ddfg-33" target="XBD43902KFohH3j-Ddfg-35" edge="1">
          <mxGeometry relative="1" as="geometry" />
        </mxCell>
        <mxCell id="XBD43902KFohH3j-Ddfg-33" value="&lt;font style=&quot;font-size: 16px;&quot;&gt;Modulo 1.1&lt;/font&gt;" style="rounded=1;whiteSpace=wrap;html=1;shadow=0;labelBackgroundColor=none;strokeWidth=1;fontFamily=Verdana;fontSize=8;align=center;" parent="77e6c97f196da883-3" vertex="1">
          <mxGeometry x="30" y="760" width="100" height="60" as="geometry" />
        </mxCell>
        <mxCell id="XBD43902KFohH3j-Ddfg-38" value="" style="edgeStyle=orthogonalEdgeStyle;rounded=0;orthogonalLoop=1;jettySize=auto;html=1;" parent="77e6c97f196da883-3" source="XBD43902KFohH3j-Ddfg-35" target="XBD43902KFohH3j-Ddfg-37" edge="1">
          <mxGeometry relative="1" as="geometry" />
        </mxCell>
        <mxCell id="XBD43902KFohH3j-Ddfg-35" value="&lt;font style=&quot;font-size: 16px;&quot;&gt;Modulo 5.3&lt;/font&gt;" style="rounded=1;whiteSpace=wrap;html=1;shadow=0;labelBackgroundColor=none;strokeWidth=1;fontFamily=Verdana;fontSize=8;align=center;" parent="77e6c97f196da883-3" vertex="1">
          <mxGeometry x="30" y="840" width="100" height="60" as="geometry" />
        </mxCell>
        <mxCell id="XBD43902KFohH3j-Ddfg-40" value="" style="edgeStyle=orthogonalEdgeStyle;rounded=0;orthogonalLoop=1;jettySize=auto;html=1;" parent="77e6c97f196da883-3" source="XBD43902KFohH3j-Ddfg-37" target="XBD43902KFohH3j-Ddfg-39" edge="1">
          <mxGeometry relative="1" as="geometry" />
        </mxCell>
        <mxCell id="XBD43902KFohH3j-Ddfg-37" value="&lt;font style=&quot;font-size: 16px;&quot;&gt;Modulo 5.4&lt;/font&gt;" style="rounded=1;whiteSpace=wrap;html=1;shadow=0;labelBackgroundColor=none;strokeWidth=1;fontFamily=Verdana;fontSize=8;align=center;" parent="77e6c97f196da883-3" vertex="1">
          <mxGeometry x="30" y="910" width="100" height="60" as="geometry" />
        </mxCell>
        <mxCell id="XBD43902KFohH3j-Ddfg-39" value="&lt;font style=&quot;font-size: 16px;&quot;&gt;Modulo 5.7&lt;/font&gt;" style="rounded=1;whiteSpace=wrap;html=1;shadow=0;labelBackgroundColor=none;strokeWidth=1;fontFamily=Verdana;fontSize=8;align=center;" parent="77e6c97f196da883-3" vertex="1">
          <mxGeometry x="30" y="980" width="100" height="60" as="geometry" />
        </mxCell>
        <mxCell id="XBD43902KFohH3j-Ddfg-46" value="&lt;font style=&quot;font-size: 16px;&quot;&gt;Modulo 1.1&lt;/font&gt;" style="rounded=1;whiteSpace=wrap;html=1;shadow=0;labelBackgroundColor=none;strokeWidth=1;fontFamily=Verdana;fontSize=8;align=center;" parent="77e6c97f196da883-3" vertex="1">
          <mxGeometry x="30" y="1070" width="100" height="60" as="geometry" />
        </mxCell>
        <mxCell id="XBD43902KFohH3j-Ddfg-49" value="&lt;font style=&quot;font-size: 16px;&quot;&gt;Modulo 1.1&lt;/font&gt;" style="rounded=1;whiteSpace=wrap;html=1;shadow=0;labelBackgroundColor=none;strokeWidth=1;fontFamily=Verdana;fontSize=8;align=center;" parent="77e6c97f196da883-3" vertex="1">
          <mxGeometry x="30" y="1160" width="100" height="60" as="geometry" />
        </mxCell>
        <mxCell id="XBD43902KFohH3j-Ddfg-55" value="" style="edgeStyle=orthogonalEdgeStyle;rounded=0;orthogonalLoop=1;jettySize=auto;html=1;" parent="77e6c97f196da883-3" source="XBD43902KFohH3j-Ddfg-52" target="XBD43902KFohH3j-Ddfg-54" edge="1">
          <mxGeometry relative="1" as="geometry" />
        </mxCell>
        <mxCell id="XBD43902KFohH3j-Ddfg-52" value="&lt;font style=&quot;font-size: 16px;&quot;&gt;Modulo 1.1&lt;/font&gt;" style="rounded=1;whiteSpace=wrap;html=1;shadow=0;labelBackgroundColor=none;strokeWidth=1;fontFamily=Verdana;fontSize=8;align=center;" parent="77e6c97f196da883-3" vertex="1">
          <mxGeometry x="30" y="1250" width="100" height="60" as="geometry" />
        </mxCell>
        <mxCell id="XBD43902KFohH3j-Ddfg-57" value="" style="edgeStyle=orthogonalEdgeStyle;rounded=0;orthogonalLoop=1;jettySize=auto;html=1;" parent="77e6c97f196da883-3" source="XBD43902KFohH3j-Ddfg-54" target="XBD43902KFohH3j-Ddfg-56" edge="1">
          <mxGeometry relative="1" as="geometry" />
        </mxCell>
        <mxCell id="XBD43902KFohH3j-Ddfg-54" value="&lt;font style=&quot;font-size: 16px;&quot;&gt;Modulo 5.3&lt;/font&gt;" style="rounded=1;whiteSpace=wrap;html=1;shadow=0;labelBackgroundColor=none;strokeWidth=1;fontFamily=Verdana;fontSize=8;align=center;" parent="77e6c97f196da883-3" vertex="1">
          <mxGeometry x="30" y="1330" width="100" height="60" as="geometry" />
        </mxCell>
        <mxCell id="XBD43902KFohH3j-Ddfg-56" value="&lt;font style=&quot;font-size: 16px;&quot;&gt;Modulo 5.7&lt;/font&gt;" style="rounded=1;whiteSpace=wrap;html=1;shadow=0;labelBackgroundColor=none;strokeWidth=1;fontFamily=Verdana;fontSize=8;align=center;" parent="77e6c97f196da883-3" vertex="1">
          <mxGeometry x="30" y="1410" width="100" height="60" as="geometry" />
        </mxCell>
        <mxCell id="XBD43902KFohH3j-Ddfg-59" value="&lt;font style=&quot;font-size: 16px;&quot;&gt;Modulo 1.1&lt;/font&gt;" style="rounded=1;whiteSpace=wrap;html=1;shadow=0;labelBackgroundColor=none;strokeWidth=1;fontFamily=Verdana;fontSize=8;align=center;" parent="77e6c97f196da883-3" vertex="1">
          <mxGeometry x="30" y="1500" width="100" height="60" as="geometry" />
        </mxCell>
        <mxCell id="XBD43902KFohH3j-Ddfg-62" value="&lt;font style=&quot;font-size: 16px;&quot;&gt;Modulo 1.1&lt;/font&gt;" style="rounded=1;whiteSpace=wrap;html=1;shadow=0;labelBackgroundColor=none;strokeWidth=1;fontFamily=Verdana;fontSize=8;align=center;" parent="77e6c97f196da883-3" vertex="1">
          <mxGeometry x="30" y="1590" width="100" height="60" as="geometry" />
        </mxCell>
        <mxCell id="XBD43902KFohH3j-Ddfg-68" value="" style="edgeStyle=orthogonalEdgeStyle;rounded=0;orthogonalLoop=1;jettySize=auto;html=1;" parent="77e6c97f196da883-3" source="XBD43902KFohH3j-Ddfg-65" target="XBD43902KFohH3j-Ddfg-67" edge="1">
          <mxGeometry relative="1" as="geometry" />
        </mxCell>
        <mxCell id="XBD43902KFohH3j-Ddfg-65" value="&lt;font style=&quot;font-size: 16px;&quot;&gt;Modulo 1.1&lt;/font&gt;" style="rounded=1;whiteSpace=wrap;html=1;shadow=0;labelBackgroundColor=none;strokeWidth=1;fontFamily=Verdana;fontSize=8;align=center;" parent="77e6c97f196da883-3" vertex="1">
          <mxGeometry x="30" y="1700" width="100" height="60" as="geometry" />
        </mxCell>
        <mxCell id="XBD43902KFohH3j-Ddfg-67" value="&lt;font style=&quot;font-size: 16px;&quot;&gt;Modulo 4.1&lt;/font&gt;" style="rounded=1;whiteSpace=wrap;html=1;shadow=0;labelBackgroundColor=none;strokeWidth=1;fontFamily=Verdana;fontSize=8;align=center;" parent="77e6c97f196da883-3" vertex="1">
          <mxGeometry x="30" y="1780" width="100" height="60" as="geometry" />
        </mxCell>
        <mxCell id="XBD43902KFohH3j-Ddfg-73" value="&lt;font style=&quot;font-size: 16px;&quot;&gt;Modulo 1.1&lt;/font&gt;" style="rounded=1;whiteSpace=wrap;html=1;shadow=0;labelBackgroundColor=none;strokeWidth=1;fontFamily=Verdana;fontSize=8;align=center;" parent="77e6c97f196da883-3" vertex="1">
          <mxGeometry x="30" y="1870" width="100" height="60" as="geometry" />
        </mxCell>
        <mxCell id="XBD43902KFohH3j-Ddfg-76" value="&lt;font style=&quot;font-size: 16px;&quot;&gt;Modulo 1.1&lt;/font&gt;" style="rounded=1;whiteSpace=wrap;html=1;shadow=0;labelBackgroundColor=none;strokeWidth=1;fontFamily=Verdana;fontSize=8;align=center;" parent="77e6c97f196da883-3" vertex="1">
          <mxGeometry x="30" y="1950" width="100" height="60" as="geometry" />
        </mxCell>
        <mxCell id="XBD43902KFohH3j-Ddfg-79" value="&lt;font style=&quot;font-size: 16px;&quot;&gt;Modulo 1.1&lt;/font&gt;" style="rounded=1;whiteSpace=wrap;html=1;shadow=0;labelBackgroundColor=none;strokeWidth=1;fontFamily=Verdana;fontSize=8;align=center;" parent="77e6c97f196da883-3" vertex="1">
          <mxGeometry x="30" y="2035" width="100" height="60" as="geometry" />
        </mxCell>
        <mxCell id="XBD43902KFohH3j-Ddfg-82" value="&lt;font style=&quot;font-size: 16px;&quot;&gt;Modulo 1.1&lt;/font&gt;" style="rounded=1;whiteSpace=wrap;html=1;shadow=0;labelBackgroundColor=none;strokeWidth=1;fontFamily=Verdana;fontSize=8;align=center;" parent="77e6c97f196da883-3" vertex="1">
          <mxGeometry x="30" y="2110" width="100" height="60" as="geometry" />
        </mxCell>
        <mxCell id="XBD43902KFohH3j-Ddfg-90" value="" style="edgeStyle=orthogonalEdgeStyle;rounded=0;orthogonalLoop=1;jettySize=auto;html=1;" parent="77e6c97f196da883-3" source="XBD43902KFohH3j-Ddfg-87" target="XBD43902KFohH3j-Ddfg-89" edge="1">
          <mxGeometry relative="1" as="geometry" />
        </mxCell>
        <mxCell id="XBD43902KFohH3j-Ddfg-87" value="&lt;font style=&quot;font-size: 16px;&quot;&gt;Modulo 1.1&lt;/font&gt;" style="rounded=1;whiteSpace=wrap;html=1;shadow=0;labelBackgroundColor=none;strokeWidth=1;fontFamily=Verdana;fontSize=8;align=center;" parent="77e6c97f196da883-3" vertex="1">
          <mxGeometry x="30" y="2200" width="100" height="60" as="geometry" />
        </mxCell>
        <mxCell id="XBD43902KFohH3j-Ddfg-92" value="" style="edgeStyle=orthogonalEdgeStyle;rounded=0;orthogonalLoop=1;jettySize=auto;html=1;" parent="77e6c97f196da883-3" source="XBD43902KFohH3j-Ddfg-89" target="XBD43902KFohH3j-Ddfg-91" edge="1">
          <mxGeometry relative="1" as="geometry" />
        </mxCell>
        <mxCell id="XBD43902KFohH3j-Ddfg-89" value="&lt;font style=&quot;font-size: 16px;&quot;&gt;Modulo 2.1&lt;/font&gt;" style="rounded=1;whiteSpace=wrap;html=1;shadow=0;labelBackgroundColor=none;strokeWidth=1;fontFamily=Verdana;fontSize=8;align=center;" parent="77e6c97f196da883-3" vertex="1">
          <mxGeometry x="30" y="2280" width="100" height="60" as="geometry" />
        </mxCell>
        <mxCell id="XBD43902KFohH3j-Ddfg-91" value="&lt;font style=&quot;font-size: 16px;&quot;&gt;Modulo 2.3&lt;/font&gt;" style="rounded=1;whiteSpace=wrap;html=1;shadow=0;labelBackgroundColor=none;strokeWidth=1;fontFamily=Verdana;fontSize=8;align=center;" parent="77e6c97f196da883-3" vertex="1">
          <mxGeometry x="30" y="2350" width="100" height="60" as="geometry" />
        </mxCell>
        <mxCell id="XBD43902KFohH3j-Ddfg-137" value="&lt;font style=&quot;font-size: 16px;&quot;&gt;Caso 1.1&lt;/font&gt;" style="rounded=1;whiteSpace=wrap;html=1;shadow=0;labelBackgroundColor=none;strokeWidth=1;fontFamily=Verdana;fontSize=8;align=center;" parent="77e6c97f196da883-3" vertex="1">
          <mxGeometry x="30" y="3030" width="100" height="60" as="geometry" />
        </mxCell>
        <mxCell id="77e6c97f196da883-4" value="DB" style="swimlane;html=1;startSize=20;fontSize=20;" parent="77e6c97f196da883-1" vertex="1">
          <mxGeometry x="320" y="20" width="160" height="3160" as="geometry" />
        </mxCell>
        <mxCell id="XBD43902KFohH3j-Ddfg-11" value="&lt;font style=&quot;font-size: 16px;&quot;&gt;Insertar paciente&lt;/font&gt;" style="whiteSpace=wrap;html=1;fontSize=8;fontFamily=Verdana;rounded=1;shadow=0;labelBackgroundColor=none;strokeWidth=1;" parent="77e6c97f196da883-4" vertex="1">
          <mxGeometry x="20" y="300" width="120" height="60" as="geometry" />
        </mxCell>
        <mxCell id="XBD43902KFohH3j-Ddfg-21" value="&lt;font style=&quot;font-size: 16px;&quot;&gt;Editar paciente&lt;/font&gt;" style="rounded=1;whiteSpace=wrap;html=1;shadow=0;labelBackgroundColor=none;strokeWidth=1;fontFamily=Verdana;fontSize=8;align=center;" parent="77e6c97f196da883-4" vertex="1">
          <mxGeometry x="20" y="560" width="100" height="60" as="geometry" />
        </mxCell>
        <mxCell id="XBD43902KFohH3j-Ddfg-69" value="&lt;font style=&quot;font-size: 16px;&quot;&gt;Crear paciente&lt;/font&gt;" style="rounded=1;whiteSpace=wrap;html=1;shadow=0;labelBackgroundColor=none;strokeWidth=1;fontFamily=Verdana;fontSize=8;align=center;" parent="77e6c97f196da883-4" vertex="1">
          <mxGeometry x="30" y="1780" width="100" height="60" as="geometry" />
        </mxCell>
        <mxCell id="XBD43902KFohH3j-Ddfg-12" value="" style="edgeStyle=orthogonalEdgeStyle;rounded=0;orthogonalLoop=1;jettySize=auto;html=1;" parent="77e6c97f196da883-1" source="XBD43902KFohH3j-Ddfg-9" target="XBD43902KFohH3j-Ddfg-11" edge="1">
          <mxGeometry relative="1" as="geometry" />
        </mxCell>
        <mxCell id="XBD43902KFohH3j-Ddfg-15" value="" style="edgeStyle=orthogonalEdgeStyle;rounded=0;orthogonalLoop=1;jettySize=auto;html=1;" parent="77e6c97f196da883-1" source="XBD43902KFohH3j-Ddfg-13" target="XBD43902KFohH3j-Ddfg-14" edge="1">
          <mxGeometry relative="1" as="geometry" />
        </mxCell>
        <mxCell id="XBD43902KFohH3j-Ddfg-18" value="" style="edgeStyle=orthogonalEdgeStyle;rounded=0;orthogonalLoop=1;jettySize=auto;html=1;" parent="77e6c97f196da883-1" source="XBD43902KFohH3j-Ddfg-16" target="XBD43902KFohH3j-Ddfg-17" edge="1">
          <mxGeometry relative="1" as="geometry" />
        </mxCell>
        <mxCell id="XBD43902KFohH3j-Ddfg-22" value="" style="edgeStyle=orthogonalEdgeStyle;rounded=0;orthogonalLoop=1;jettySize=auto;html=1;" parent="77e6c97f196da883-1" source="XBD43902KFohH3j-Ddfg-19" target="XBD43902KFohH3j-Ddfg-21" edge="1">
          <mxGeometry relative="1" as="geometry" />
        </mxCell>
        <mxCell id="XBD43902KFohH3j-Ddfg-31" value="" style="edgeStyle=orthogonalEdgeStyle;rounded=0;orthogonalLoop=1;jettySize=auto;html=1;" parent="77e6c97f196da883-1" source="XBD43902KFohH3j-Ddfg-29" target="XBD43902KFohH3j-Ddfg-30" edge="1">
          <mxGeometry relative="1" as="geometry" />
        </mxCell>
        <mxCell id="XBD43902KFohH3j-Ddfg-34" value="" style="edgeStyle=orthogonalEdgeStyle;rounded=0;orthogonalLoop=1;jettySize=auto;html=1;" parent="77e6c97f196da883-1" source="XBD43902KFohH3j-Ddfg-32" target="XBD43902KFohH3j-Ddfg-33" edge="1">
          <mxGeometry relative="1" as="geometry" />
        </mxCell>
        <mxCell id="XBD43902KFohH3j-Ddfg-42" value="" style="edgeStyle=orthogonalEdgeStyle;rounded=0;orthogonalLoop=1;jettySize=auto;html=1;" parent="77e6c97f196da883-1" source="XBD43902KFohH3j-Ddfg-35" target="XBD43902KFohH3j-Ddfg-41" edge="1">
          <mxGeometry relative="1" as="geometry" />
        </mxCell>
        <mxCell id="XBD43902KFohH3j-Ddfg-47" style="edgeStyle=orthogonalEdgeStyle;rounded=0;orthogonalLoop=1;jettySize=auto;html=1;entryX=0;entryY=0.5;entryDx=0;entryDy=0;" parent="77e6c97f196da883-1" source="XBD43902KFohH3j-Ddfg-45" target="XBD43902KFohH3j-Ddfg-46" edge="1">
          <mxGeometry relative="1" as="geometry">
            <mxPoint x="140" y="1120" as="targetPoint" />
          </mxGeometry>
        </mxCell>
        <mxCell id="XBD43902KFohH3j-Ddfg-50" value="" style="edgeStyle=orthogonalEdgeStyle;rounded=0;orthogonalLoop=1;jettySize=auto;html=1;" parent="77e6c97f196da883-1" source="XBD43902KFohH3j-Ddfg-48" target="XBD43902KFohH3j-Ddfg-49" edge="1">
          <mxGeometry relative="1" as="geometry" />
        </mxCell>
        <mxCell id="XBD43902KFohH3j-Ddfg-53" value="" style="edgeStyle=orthogonalEdgeStyle;rounded=0;orthogonalLoop=1;jettySize=auto;html=1;" parent="77e6c97f196da883-1" source="XBD43902KFohH3j-Ddfg-51" target="XBD43902KFohH3j-Ddfg-52" edge="1">
          <mxGeometry relative="1" as="geometry" />
        </mxCell>
        <mxCell id="XBD43902KFohH3j-Ddfg-60" value="" style="edgeStyle=orthogonalEdgeStyle;rounded=0;orthogonalLoop=1;jettySize=auto;html=1;" parent="77e6c97f196da883-1" source="XBD43902KFohH3j-Ddfg-58" target="XBD43902KFohH3j-Ddfg-59" edge="1">
          <mxGeometry relative="1" as="geometry" />
        </mxCell>
        <mxCell id="XBD43902KFohH3j-Ddfg-63" value="" style="edgeStyle=orthogonalEdgeStyle;rounded=0;orthogonalLoop=1;jettySize=auto;html=1;" parent="77e6c97f196da883-1" source="XBD43902KFohH3j-Ddfg-61" target="XBD43902KFohH3j-Ddfg-62" edge="1">
          <mxGeometry relative="1" as="geometry" />
        </mxCell>
        <mxCell id="XBD43902KFohH3j-Ddfg-66" value="" style="edgeStyle=orthogonalEdgeStyle;rounded=0;orthogonalLoop=1;jettySize=auto;html=1;" parent="77e6c97f196da883-1" source="XBD43902KFohH3j-Ddfg-64" target="XBD43902KFohH3j-Ddfg-65" edge="1">
          <mxGeometry relative="1" as="geometry" />
        </mxCell>
        <mxCell id="XBD43902KFohH3j-Ddfg-70" value="" style="edgeStyle=orthogonalEdgeStyle;rounded=0;orthogonalLoop=1;jettySize=auto;html=1;" parent="77e6c97f196da883-1" source="XBD43902KFohH3j-Ddfg-67" target="XBD43902KFohH3j-Ddfg-69" edge="1">
          <mxGeometry relative="1" as="geometry" />
        </mxCell>
        <mxCell id="XBD43902KFohH3j-Ddfg-74" value="" style="edgeStyle=orthogonalEdgeStyle;rounded=0;orthogonalLoop=1;jettySize=auto;html=1;" parent="77e6c97f196da883-1" source="XBD43902KFohH3j-Ddfg-72" target="XBD43902KFohH3j-Ddfg-73" edge="1">
          <mxGeometry relative="1" as="geometry" />
        </mxCell>
        <mxCell id="XBD43902KFohH3j-Ddfg-77" value="" style="edgeStyle=orthogonalEdgeStyle;rounded=0;orthogonalLoop=1;jettySize=auto;html=1;" parent="77e6c97f196da883-1" source="XBD43902KFohH3j-Ddfg-75" target="XBD43902KFohH3j-Ddfg-76" edge="1">
          <mxGeometry relative="1" as="geometry" />
        </mxCell>
        <mxCell id="XBD43902KFohH3j-Ddfg-80" value="" style="edgeStyle=orthogonalEdgeStyle;rounded=0;orthogonalLoop=1;jettySize=auto;html=1;" parent="77e6c97f196da883-1" source="XBD43902KFohH3j-Ddfg-78" target="XBD43902KFohH3j-Ddfg-79" edge="1">
          <mxGeometry relative="1" as="geometry" />
        </mxCell>
        <mxCell id="XBD43902KFohH3j-Ddfg-83" value="" style="edgeStyle=orthogonalEdgeStyle;rounded=0;orthogonalLoop=1;jettySize=auto;html=1;" parent="77e6c97f196da883-1" source="XBD43902KFohH3j-Ddfg-81" target="XBD43902KFohH3j-Ddfg-82" edge="1">
          <mxGeometry relative="1" as="geometry" />
        </mxCell>
        <mxCell id="77e6c97f196da883-5" value="FastApi" style="swimlane;html=1;startSize=20;fontSize=20;" parent="77e6c97f196da883-1" vertex="1">
          <mxGeometry x="480" y="20" width="160" height="3160" as="geometry" />
        </mxCell>
        <mxCell id="XBD43902KFohH3j-Ddfg-41" value="&lt;font style=&quot;font-size: 16px;&quot;&gt;Ejecutar modelo&lt;/font&gt;" style="rounded=1;whiteSpace=wrap;html=1;shadow=0;labelBackgroundColor=none;strokeWidth=1;fontFamily=Verdana;fontSize=8;align=center;" parent="77e6c97f196da883-5" vertex="1">
          <mxGeometry x="30" y="840" width="100" height="60" as="geometry" />
        </mxCell>
        <mxCell id="XBD43902KFohH3j-Ddfg-84" value="Desktop App" style="swimlane;html=1;startSize=20;fontSize=20;" parent="77e6c97f196da883-1" vertex="1">
          <mxGeometry x="640" y="20" width="160" height="3160" as="geometry" />
        </mxCell>
        <mxCell id="XBD43902KFohH3j-Ddfg-94" value="&lt;font style=&quot;font-size: 16px;&quot;&gt;Modulo 8.1&lt;/font&gt;" style="rounded=1;whiteSpace=wrap;html=1;shadow=0;labelBackgroundColor=none;strokeWidth=1;fontFamily=Verdana;fontSize=8;align=center;" parent="XBD43902KFohH3j-Ddfg-84" vertex="1">
          <mxGeometry x="20" y="2440" width="100" height="60" as="geometry" />
        </mxCell>
        <mxCell id="XBD43902KFohH3j-Ddfg-96" value="&lt;font style=&quot;font-size: 16px;&quot;&gt;Modulo 8.3.1&lt;/font&gt;" style="rounded=1;whiteSpace=wrap;html=1;shadow=0;labelBackgroundColor=none;strokeWidth=1;fontFamily=Verdana;fontSize=8;align=center;" parent="XBD43902KFohH3j-Ddfg-84" vertex="1">
          <mxGeometry x="20" y="2530" width="100" height="60" as="geometry" />
        </mxCell>
        <mxCell id="XBD43902KFohH3j-Ddfg-97" value="" style="edgeStyle=orthogonalEdgeStyle;rounded=0;orthogonalLoop=1;jettySize=auto;html=1;" parent="XBD43902KFohH3j-Ddfg-84" source="XBD43902KFohH3j-Ddfg-94" target="XBD43902KFohH3j-Ddfg-96" edge="1">
          <mxGeometry relative="1" as="geometry" />
        </mxCell>
        <mxCell id="XBD43902KFohH3j-Ddfg-98" value="&lt;font style=&quot;font-size: 16px;&quot;&gt;Modulo 8.3.2&lt;/font&gt;" style="rounded=1;whiteSpace=wrap;html=1;shadow=0;labelBackgroundColor=none;strokeWidth=1;fontFamily=Verdana;fontSize=8;align=center;" parent="XBD43902KFohH3j-Ddfg-84" vertex="1">
          <mxGeometry x="20" y="2620" width="100" height="60" as="geometry" />
        </mxCell>
        <mxCell id="XBD43902KFohH3j-Ddfg-99" value="" style="edgeStyle=orthogonalEdgeStyle;rounded=0;orthogonalLoop=1;jettySize=auto;html=1;" parent="XBD43902KFohH3j-Ddfg-84" source="XBD43902KFohH3j-Ddfg-96" target="XBD43902KFohH3j-Ddfg-98" edge="1">
          <mxGeometry relative="1" as="geometry" />
        </mxCell>
        <mxCell id="XBD43902KFohH3j-Ddfg-100" value="&lt;font style=&quot;font-size: 16px;&quot;&gt;Modulo 8.3.4&lt;/font&gt;" style="rounded=1;whiteSpace=wrap;html=1;shadow=0;labelBackgroundColor=none;strokeWidth=1;fontFamily=Verdana;fontSize=8;align=center;" parent="XBD43902KFohH3j-Ddfg-84" vertex="1">
          <mxGeometry x="20" y="2700" width="100" height="60" as="geometry" />
        </mxCell>
        <mxCell id="XBD43902KFohH3j-Ddfg-101" value="" style="edgeStyle=orthogonalEdgeStyle;rounded=0;orthogonalLoop=1;jettySize=auto;html=1;" parent="XBD43902KFohH3j-Ddfg-84" source="XBD43902KFohH3j-Ddfg-98" target="XBD43902KFohH3j-Ddfg-100" edge="1">
          <mxGeometry relative="1" as="geometry" />
        </mxCell>
        <mxCell id="XBD43902KFohH3j-Ddfg-102" value="&lt;font style=&quot;font-size: 16px;&quot;&gt;Modulo 8.4&lt;/font&gt;" style="rounded=1;whiteSpace=wrap;html=1;shadow=0;labelBackgroundColor=none;strokeWidth=1;fontFamily=Verdana;fontSize=8;align=center;" parent="XBD43902KFohH3j-Ddfg-84" vertex="1">
          <mxGeometry x="20" y="2780" width="100" height="60" as="geometry" />
        </mxCell>
        <mxCell id="XBD43902KFohH3j-Ddfg-103" value="" style="edgeStyle=orthogonalEdgeStyle;rounded=0;orthogonalLoop=1;jettySize=auto;html=1;" parent="XBD43902KFohH3j-Ddfg-84" source="XBD43902KFohH3j-Ddfg-100" target="XBD43902KFohH3j-Ddfg-102" edge="1">
          <mxGeometry relative="1" as="geometry" />
        </mxCell>
        <mxCell id="XBD43902KFohH3j-Ddfg-136" value="" style="edgeStyle=orthogonalEdgeStyle;rounded=0;orthogonalLoop=1;jettySize=auto;html=1;" parent="XBD43902KFohH3j-Ddfg-84" source="XBD43902KFohH3j-Ddfg-133" target="XBD43902KFohH3j-Ddfg-135" edge="1">
          <mxGeometry relative="1" as="geometry" />
        </mxCell>
        <mxCell id="XBD43902KFohH3j-Ddfg-133" value="&lt;font style=&quot;font-size: 16px;&quot;&gt;Caso 8.1&lt;/font&gt;" style="rounded=1;whiteSpace=wrap;html=1;shadow=0;labelBackgroundColor=none;strokeWidth=1;fontFamily=Verdana;fontSize=8;align=center;" parent="XBD43902KFohH3j-Ddfg-84" vertex="1">
          <mxGeometry x="30" y="2885" width="100" height="60" as="geometry" />
        </mxCell>
        <mxCell id="XBD43902KFohH3j-Ddfg-135" value="&lt;font style=&quot;font-size: 16px;&quot;&gt;Caso 8.2&lt;/font&gt;" style="rounded=1;whiteSpace=wrap;html=1;shadow=0;labelBackgroundColor=none;strokeWidth=1;fontFamily=Verdana;fontSize=8;align=center;" parent="XBD43902KFohH3j-Ddfg-84" vertex="1">
          <mxGeometry x="30" y="3030" width="100" height="60" as="geometry" />
        </mxCell>
        <mxCell id="XBD43902KFohH3j-Ddfg-88" value="" style="edgeStyle=orthogonalEdgeStyle;rounded=0;orthogonalLoop=1;jettySize=auto;html=1;" parent="77e6c97f196da883-1" source="XBD43902KFohH3j-Ddfg-86" target="XBD43902KFohH3j-Ddfg-87" edge="1">
          <mxGeometry relative="1" as="geometry" />
        </mxCell>
        <mxCell id="XBD43902KFohH3j-Ddfg-95" value="" style="edgeStyle=orthogonalEdgeStyle;rounded=0;orthogonalLoop=1;jettySize=auto;html=1;" parent="77e6c97f196da883-1" source="XBD43902KFohH3j-Ddfg-93" target="XBD43902KFohH3j-Ddfg-94" edge="1">
          <mxGeometry relative="1" as="geometry" />
        </mxCell>
        <mxCell id="XBD43902KFohH3j-Ddfg-104" value="Sensores" style="swimlane;html=1;startSize=20;fontSize=20;" parent="77e6c97f196da883-1" vertex="1">
          <mxGeometry x="800" y="20" width="160" height="3160" as="geometry" />
        </mxCell>
        <mxCell id="XBD43902KFohH3j-Ddfg-106" value="&lt;font style=&quot;font-size: 16px;&quot;&gt;Escanear&lt;/font&gt;" style="rounded=1;whiteSpace=wrap;html=1;shadow=0;labelBackgroundColor=none;strokeWidth=1;fontFamily=Verdana;fontSize=8;align=center;" parent="XBD43902KFohH3j-Ddfg-104" vertex="1">
          <mxGeometry x="40" y="2440" width="100" height="60" as="geometry" />
        </mxCell>
        <mxCell id="XBD43902KFohH3j-Ddfg-108" value="&lt;font style=&quot;font-size: 16px;&quot;&gt;Conectar&lt;/font&gt;" style="rounded=1;whiteSpace=wrap;html=1;shadow=0;labelBackgroundColor=none;strokeWidth=1;fontFamily=Verdana;fontSize=8;align=center;" parent="XBD43902KFohH3j-Ddfg-104" vertex="1">
          <mxGeometry x="40" y="2530" width="100" height="60" as="geometry" />
        </mxCell>
        <mxCell id="XBD43902KFohH3j-Ddfg-110" value="&lt;font style=&quot;font-size: 16px;&quot;&gt;Capturar&lt;/font&gt;" style="rounded=1;whiteSpace=wrap;html=1;shadow=0;labelBackgroundColor=none;strokeWidth=1;fontFamily=Verdana;fontSize=8;align=center;" parent="XBD43902KFohH3j-Ddfg-104" vertex="1">
          <mxGeometry x="40" y="2620" width="100" height="60" as="geometry" />
        </mxCell>
        <mxCell id="XBD43902KFohH3j-Ddfg-107" value="" style="edgeStyle=orthogonalEdgeStyle;rounded=0;orthogonalLoop=1;jettySize=auto;html=1;" parent="77e6c97f196da883-1" source="XBD43902KFohH3j-Ddfg-94" target="XBD43902KFohH3j-Ddfg-106" edge="1">
          <mxGeometry relative="1" as="geometry" />
        </mxCell>
        <mxCell id="XBD43902KFohH3j-Ddfg-109" value="" style="edgeStyle=orthogonalEdgeStyle;rounded=0;orthogonalLoop=1;jettySize=auto;html=1;" parent="77e6c97f196da883-1" source="XBD43902KFohH3j-Ddfg-96" target="XBD43902KFohH3j-Ddfg-108" edge="1">
          <mxGeometry relative="1" as="geometry" />
        </mxCell>
        <mxCell id="XBD43902KFohH3j-Ddfg-111" value="" style="edgeStyle=orthogonalEdgeStyle;rounded=0;orthogonalLoop=1;jettySize=auto;html=1;" parent="77e6c97f196da883-1" source="XBD43902KFohH3j-Ddfg-98" target="XBD43902KFohH3j-Ddfg-110" edge="1">
          <mxGeometry relative="1" as="geometry" />
        </mxCell>
        <mxCell id="XBD43902KFohH3j-Ddfg-134" value="" style="edgeStyle=orthogonalEdgeStyle;rounded=0;orthogonalLoop=1;jettySize=auto;html=1;" parent="77e6c97f196da883-1" source="XBD43902KFohH3j-Ddfg-132" target="XBD43902KFohH3j-Ddfg-133" edge="1">
          <mxGeometry relative="1" as="geometry" />
        </mxCell>
        <mxCell id="XBD43902KFohH3j-Ddfg-138" value="" style="edgeStyle=orthogonalEdgeStyle;rounded=0;orthogonalLoop=1;jettySize=auto;html=1;" parent="77e6c97f196da883-1" source="XBD43902KFohH3j-Ddfg-135" target="XBD43902KFohH3j-Ddfg-137" edge="1">
          <mxGeometry relative="1" as="geometry" />
        </mxCell>
        <mxCell id="XBD43902KFohH3j-Ddfg-151" style="edgeStyle=orthogonalEdgeStyle;rounded=0;orthogonalLoop=1;jettySize=auto;html=1;exitX=1;exitY=0.5;exitDx=0;exitDy=0;entryX=0;entryY=0.5;entryDx=0;entryDy=0;" parent="77e6c97f196da883-1" source="XBD43902KFohH3j-Ddfg-150" target="XBD43902KFohH3j-Ddfg-94" edge="1">
          <mxGeometry relative="1" as="geometry" />
        </mxCell>
        <mxCell id="XBD43902KFohH3j-Ddfg-153" style="edgeStyle=orthogonalEdgeStyle;rounded=0;orthogonalLoop=1;jettySize=auto;html=1;exitX=1;exitY=0.5;exitDx=0;exitDy=0;entryX=0;entryY=0.5;entryDx=0;entryDy=0;" parent="77e6c97f196da883-1" source="XBD43902KFohH3j-Ddfg-152" target="XBD43902KFohH3j-Ddfg-133" edge="1">
          <mxGeometry relative="1" as="geometry" />
        </mxCell>
      </root>
    </mxGraphModel>
  </diagram>
</mxfile>
